<?xml version="1.0" standalone="no"?>
<!DOCTYPE svg PUBLIC "-//W3C//DTD SVG 20010904//EN"
 "http://www.w3.org/TR/2001/REC-SVG-20010904/DTD/svg10.dtd">
<svg version="1.0" xmlns="http://www.w3.org/2000/svg"
 width="252.000000pt" height="252.000000pt" viewBox="0 0 252.000000 252.000000"
 preserveAspectRatio="xMidYMid meet">
<metadata>
Created by potrace 1.14, written by Peter Selinger 2001-2017
</metadata>
<g transform="translate(0.000000,252.000000) scale(0.100000,-0.100000)"
fill="#000000" stroke="none">
<path d="M744 2434 c-22 -18 -50 -36 -65 -39 -14 -3 -43 -21 -65 -40 -21 -19
-46 -37 -54 -40 -23 -8 -60 -71 -69 -118 -5 -23 -14 -55 -21 -72 -17 -37 -15
-33 -25 -80 -4 -22 -12 -46 -18 -53 -5 -7 -11 -36 -13 -65 -2 -28 -5 -73 -8
-98 -2 -25 0 -65 4 -88 4 -23 4 -59 -1 -79 -14 -61 -21 -139 -24 -297 -2 -82
-4 -160 -4 -173 -1 -19 -5 -22 -21 -17 -14 5 -26 0 -38 -15 -16 -19 -18 -39
-15 -139 5 -201 14 -253 59 -318 23 -35 47 -103 46 -133 0 -8 18 -53 40 -99
79 -166 250 -296 503 -382 104 -35 255 -33 385 4 323 94 491 214 591 424 26
55 54 105 61 109 7 4 25 7 40 6 22 -2 34 6 59 40 34 46 55 90 63 129 2 13 9
47 15 74 27 126 20 217 -21 255 -20 18 -24 19 -44 5 -48 -31 -48 -34 -28 140
12 113 11 360 -3 419 -13 58 -36 108 -61 135 -30 32 -47 67 -49 103 -5 82 -62
165 -143 209 -39 22 -54 31 -122 75 -62 42 -200 108 -263 127 -27 8 -72 25
-100 38 -27 12 -59 23 -70 25 -156 21 -195 29 -225 43 -41 20 -42 20 -100 -7
-39 -18 -47 -19 -70 -7 -14 7 -39 18 -56 23 -28 9 -36 7 -70 -24z"/>
</g>
</svg>
