<svg width="50" height="52" viewBox="0 0 50 52" fill="none" xmlns="http://www.w3.org/2000/svg">
<path d="M10.7143 13.5H3.57143C2.62423 13.5 1.71582 13.8763 1.04605 14.546C0.376274 15.2158 0 16.1242 0 17.0714V38.5H3.57143V29.5714H10.7143V38.5H14.2857V17.0714C14.2857 16.1242 13.9094 15.2158 13.2397 14.546C12.5699 13.8763 11.6615 13.5 10.7143 13.5ZM3.57143 26V17.0714H10.7143V26H3.57143Z" fill="black" style="fill:black;fill-opacity:1;"/>
<path d="M35.7144 17.0714H41.0715V34.9286H35.7144V38.5H50.0001V34.9286H44.6429V17.0714H50.0001V13.5H35.7144V17.0714Z" fill="black" style="fill:black;fill-opacity:1;"/>
<path d="M21.4284 38.5H17.8569V13.5H28.5712C29.5184 13.5 30.4268 13.8763 31.0966 14.546C31.7664 15.2158 32.1426 16.1242 32.1426 17.0714V26C32.1426 26.9472 31.7664 27.8556 31.0966 28.5254C30.4268 29.1952 29.5184 29.5714 28.5712 29.5714H21.4284V38.5ZM21.4284 26H28.5712V17.0714H21.4284V26Z" fill="black" style="fill:black;fill-opacity:1;"/>
</svg>
