<svg width="50" height="52" viewBox="0 0 50 52" fill="none" xmlns="http://www.w3.org/2000/svg">
<path d="M19.9281 5.55881V7.70901H14.4299V1.04895H19.9281V3.4054H16.7863V5.55881H19.9281ZM25.5802 3.4054H27.7767V1.04895H22.2778C22.2778 1.04895 22.2778 2.23176 22.2778 3.4054C23.0135 4.14104 23.3971 4.49319 24.461 5.55715C23.8391 5.55715 22.2778 5.5592 22.2778 5.5592V7.70901H27.7767V5.55881L25.5802 3.4054ZM33.3736 3.4054H35.5699V1.04895H30.0713C30.0713 1.04895 30.0713 2.23176 30.0713 3.4054C30.8067 4.14104 31.1905 4.49319 32.2544 5.55715C31.6328 5.55715 30.0713 5.5592 30.0713 5.5592V7.70901H35.57V5.55881L33.3736 3.4054ZM42.812 10.8742L39.4719 47.0545L24.9999 50.951L10.5276 47.0545L7.18799 10.8742H42.812ZM36.0817 18.2309H24.9868H13.6958L14.2357 22.5999H24.9868H25.5907L24.9868 22.8513L14.6287 27.1655L14.9723 31.436L24.9868 31.4685L30.3543 31.4856L30.0104 37.18L24.9868 38.5945V38.59L24.9456 38.6013L20.0937 37.3765L19.7992 33.8418H19.7832H15.2827H15.2669L15.856 40.6656L24.9868 43.3657V43.3609L25.0032 43.3657L34.0852 40.7148L35.2637 27.1656H24.9868H24.9614L24.9868 27.1546L35.6397 22.6L36.0817 18.2309Z" fill="black" style="fill:black;fill-opacity:1;"/>
</svg>
