<svg width="36" height="52" viewBox="0 0 36 52" fill="none" xmlns="http://www.w3.org/2000/svg">
<path d="M3.58428 1H5.83791V3.22662H7.89947V1H10.1533V7.74259H7.89966V5.48466H5.83811V7.74259H3.58448V1H3.58428ZM13.1168 3.23602H11.1329V1H17.3555V3.23602H15.3706V7.74259H13.117V3.23602H13.1168ZM18.343 1H20.6933L22.1386 3.36919L23.5827 1H25.9333V7.74259H23.6889V4.4007L22.1385 6.79797H22.0998L20.5483 4.4007V7.74259H18.343V1ZM27.0551 1H29.3093V5.51401H32.4787V7.74259H27.0551V1ZM0.288574 10.8264L3.51227 46.9843L17.9785 51L32.4848 46.9786L35.7119 10.8263L0.288574 10.8264ZM28.9875 19.407L28.7857 21.6553L28.697 22.6521H28.6824H18.0003H17.9848H11.7269L12.1322 27.193H17.9848H18.0003H27.0982H28.2933L28.1851 28.384L27.143 40.0592L27.0763 40.8079L18.0003 43.3235V43.3242L17.9799 43.33L8.89585 40.8081L8.27442 33.8451H10.3263H12.7262L13.042 37.3819L17.9807 38.7158L17.9848 38.7145V38.7141L22.9311 37.3795L23.4455 31.6279H18.0003H17.9848H8.07638L6.98645 19.407L6.88028 18.2175H17.9848H18.0003H29.0937L28.9875 19.407Z" fill="white" style="fill:white;fill-opacity:1;"/>
</svg>
