<svg width="50" height="52" viewBox="0 0 50 52" fill="none" xmlns="http://www.w3.org/2000/svg">
<g clip-path="url(#clip0_2103_17807)">
<path fill-rule="evenodd" clip-rule="evenodd" d="M38.32 47.0803C33.9575 47.0803 31.1375 45.0005 29.7625 42.2805L33.5875 40.0649C34.595 41.7099 35.9025 42.9177 38.22 42.9177C40.165 42.9177 41.4075 41.9446 41.4075 40.6021C41.4075 38.5821 38.7125 37.7928 36.81 36.9778C33.42 35.5353 31.17 33.7228 31.17 29.8953C31.17 26.3728 33.855 23.688 38.0525 23.688C41.0375 23.688 43.1875 24.7278 44.73 27.4453L41.0725 29.7952C40.2675 28.3527 39.395 27.7822 38.0525 27.7822C36.675 27.7822 35.8025 28.6552 35.8025 29.7952C35.8025 31.2052 36.675 31.7754 38.69 32.6479C42.9125 34.4579 46.1075 35.8799 46.1075 40.5349C46.1075 44.7649 42.785 47.0803 38.32 47.0803ZM27.5 39.9978C27.5 44.8653 24.5025 47.438 20.34 47.438C16.58 47.438 14.3275 46 13.22 43.5H13.1825H13.165H13.155L16.9775 40.8279C17.715 42.1354 18.38 43.063 19.99 43.063C21.535 43.063 22.5 42.2806 22.5 39.9331V23.5H27.5V39.9978ZM0 51H50V1H0V51Z" fill="black" style="fill:black;fill-opacity:1;"/>
</g>
<defs>
<clipPath id="clip0_2103_17807">
<rect width="50" height="50" fill="white" style="fill:white;fill-opacity:1;" transform="translate(0 1)"/>
</clipPath>
</defs>
</svg>
