<svg width="48" height="52" viewBox="0 0 48 52" fill="none" xmlns="http://www.w3.org/2000/svg">
<path d="M34.3014 1C32.4104 1.01719 30.536 1.29377 28.7163 1.83755L28.5903 1.87974C27.4495 1.67504 26.2876 1.56253 25.1332 1.53753C22.7439 1.49534 20.6933 2.08913 19.0408 3.08294C17.4109 2.50634 14.0329 1.49534 10.4725 1.70004C7.99815 1.83755 5.29142 2.61104 3.28036 4.79242C1.28753 6.96599 0.228836 10.335 0.44908 14.9259C0.511356 16.1869 0.86071 18.2448 1.4455 20.9215C2.02269 23.592 2.83835 26.7172 3.85907 29.5736C4.87979 32.4223 5.99317 34.9849 7.73538 36.7257C8.6042 37.596 9.80719 38.3383 11.2228 38.2742C12.2132 38.232 13.1063 37.7851 13.8825 37.1257C14.2607 37.6382 14.6662 37.857 15.0293 38.0617C15.4971 38.3226 15.9391 38.5008 16.4069 38.6164C17.2454 38.8352 18.6777 39.1211 20.3546 38.8273C20.9242 38.7289 21.5257 38.5351 22.1272 38.2664C22.1515 38.9492 22.1758 39.6243 22.1986 40.3087C22.2852 42.4651 22.3429 44.4589 22.9657 46.2091C23.069 46.495 23.3469 47.9592 24.4375 49.2608C25.5372 50.5624 27.6713 51.3687 30.1168 50.8312C31.8347 50.4562 34.025 49.7733 35.4816 47.642C36.9216 45.5418 37.5702 42.5229 37.6977 37.6226C37.7281 37.3538 37.7691 37.1351 37.8071 36.9225L38.1473 36.9554H38.1884C40.0232 37.0366 42.0176 36.7678 43.6869 35.9694C45.1572 35.2693 46.2736 34.5615 47.0878 33.3004C47.2867 32.9895 47.5146 32.6082 47.5723 31.9566C47.6346 31.3144 47.27 30.2956 46.6685 29.8252C45.4671 28.8814 44.7076 29.2393 43.8919 29.419C43.0945 29.5986 42.2773 29.694 41.4632 29.719C43.8038 25.6672 45.4807 21.3544 46.4392 17.5432C47.0088 15.2884 47.3262 13.2133 47.349 11.3991C47.3809 9.58491 47.2321 7.98168 46.1779 6.59097C42.8712 2.2532 38.2263 1.04688 34.6356 1.00781C34.5247 1.00781 34.4153 1.00781 34.3029 1.00781L34.3014 1ZM34.2057 2.33602C37.6005 2.30321 41.9416 3.27983 45.0585 7.38008C45.7632 8.30045 45.9698 9.64272 45.9455 11.3038C45.9212 12.9648 45.622 14.9415 45.0752 17.1151C44.0241 21.3325 42.0206 26.2297 39.2136 30.6347C39.3093 30.7081 39.4187 30.7722 39.5296 30.8143C40.1144 31.0659 41.451 31.2769 44.1243 30.7159C44.7972 30.5675 45.2893 30.4721 45.8027 30.8706C46.0564 31.0894 46.1901 31.4159 46.1734 31.7582C46.143 32.0097 46.0564 32.2535 45.9045 32.4582C45.3896 33.2536 44.3719 34.013 43.0656 34.6396C41.9112 35.1912 40.248 35.4771 38.7868 35.4943C38.0441 35.5021 37.3636 35.4443 36.7833 35.2568L36.753 35.2506C36.5297 37.4554 36.0178 41.8182 35.6836 43.8027C35.4163 45.4043 34.9485 46.6841 34.0554 47.6357C33.1607 48.5967 31.903 49.1655 30.2018 49.5405C28.0981 50.0046 26.5701 49.5077 25.5828 48.653C24.5955 47.7982 24.1428 46.6591 23.874 45.9669C23.6856 45.4871 23.5899 44.8683 23.4958 44.037C23.4001 43.2073 23.3378 42.1979 23.2892 41.0509C23.2269 39.3008 23.2026 37.5507 23.2269 35.7928C22.3505 36.6241 21.2584 37.1679 20.0858 37.3804C18.6868 37.6241 17.4444 37.3804 16.7016 37.1929C16.3371 37.0944 15.9801 36.9569 15.649 36.7694C15.3012 36.5819 14.9761 36.3709 14.7559 35.9459C14.6283 35.7022 14.5903 35.4193 14.645 35.1506C14.7073 34.874 14.8652 34.638 15.0809 34.4583C15.4834 34.1224 16.0151 33.938 16.8125 33.7661C18.2691 33.4551 18.7825 33.2457 19.0909 32.991C19.3521 32.7801 19.6544 32.341 20.1739 31.6972C20.1739 31.6738 20.1739 31.641 20.1663 31.616C19.2261 31.5847 18.3071 31.3331 17.4763 30.8675C17.177 31.1925 15.6171 32.8864 13.7275 35.2302C12.9362 36.2053 12.0582 36.7678 11.1256 36.81C10.2006 36.8491 9.35911 36.3709 8.64825 35.6615C7.22502 34.2364 6.0843 31.7863 5.09548 29.0189C4.10666 26.2516 3.3077 23.1686 2.73051 20.5481C2.16091 17.9182 1.82067 15.8025 1.77207 14.7852C1.55942 10.4475 2.54824 7.52697 4.24032 5.67842C5.93241 3.82986 8.25181 3.1392 10.515 3.00169C14.5736 2.76573 18.4332 4.22207 19.2094 4.53147C20.7116 3.4814 22.6497 2.83136 25.0709 2.87043C26.2192 2.88762 27.3569 3.04075 28.4733 3.32671L28.5143 3.30171C29.0049 3.13138 29.5031 2.97669 30.0089 2.86418C31.3866 2.52822 32.7931 2.3579 34.2012 2.33446L34.2057 2.33602ZM34.5141 3.72673H34.2148C33.0605 3.74079 31.8954 3.88143 30.7654 4.13301C33.2883 5.28152 35.1945 7.04569 36.5388 8.8208C37.4729 10.0412 38.24 11.3835 38.8248 12.8164C39.0557 13.3711 39.206 13.8336 39.285 14.1914C39.3321 14.3711 39.3564 14.5243 39.3716 14.679C39.3716 14.7602 39.3792 14.843 39.3397 14.9806C39.3397 14.9884 39.3321 15.0056 39.3321 15.0134C39.3974 16.8369 38.9539 18.0714 38.8962 19.8137C38.8582 21.0762 39.1741 22.5576 39.2531 24.1764C39.3245 25.6968 39.1438 27.3657 38.1853 29.0095C38.2643 29.108 38.3357 29.2049 38.4147 29.3111C40.9543 25.1921 42.7892 20.6434 43.7628 16.7604C44.2853 14.668 44.5603 12.7726 44.5846 11.2772C44.6089 9.77867 44.34 8.68798 43.9907 8.23326C41.2687 4.6596 37.5914 3.74705 34.5126 3.72517L34.5141 3.72673ZM24.8066 4.2627C22.4188 4.27052 20.7009 5.01275 19.3977 6.12688C18.0504 7.2832 17.1497 8.85361 16.5649 10.4725C15.8601 12.3851 15.6156 14.2399 15.5199 15.5025L15.5518 15.4853C16.2733 15.0712 17.2211 14.6477 18.2418 14.4118C19.2549 14.1664 20.3546 14.093 21.3419 14.493C22.3399 14.8821 23.154 15.8181 23.4548 17.226C24.881 24.0139 23.0127 26.5375 22.3247 28.4408C22.0634 29.133 21.8341 29.833 21.6518 30.5487C21.7384 30.5315 21.8265 30.5065 21.913 30.4987C22.4037 30.4596 22.7819 30.6221 23.0052 30.719C23.7023 31.019 24.1762 31.6378 24.4375 32.3457C24.4998 32.5332 24.5469 32.727 24.5788 32.9395C24.6031 33.0207 24.6198 33.1098 24.6198 33.2004C24.5408 35.7959 24.5469 38.3929 24.6426 40.9884C24.6912 42.1119 24.7626 43.0964 24.8491 43.8777C24.9357 44.6511 25.0542 45.2449 25.1347 45.4481C25.3944 46.1153 25.7742 46.9857 26.4638 47.5795C27.1442 48.1748 28.1239 48.5655 29.9208 48.1748C31.4777 47.8248 32.4362 47.3513 33.0756 46.6685C33.7182 45.9762 34.0964 45.0246 34.3409 43.5683C34.713 41.3791 35.4482 35.0302 35.5363 33.8427C35.4983 32.9379 35.6229 32.2473 35.9084 31.7175C36.1925 31.18 36.636 30.8472 37.0249 30.6675C37.2132 30.5784 37.3955 30.5221 37.5458 30.4721C37.3879 30.2456 37.2223 30.0174 37.0552 29.7971C36.5023 29.1049 36.0421 28.3329 35.7019 27.511C35.5439 27.1672 35.3692 26.825 35.1794 26.5C34.912 26.0047 34.5718 25.3765 34.2148 24.6687C33.5025 23.2686 32.7278 21.5606 32.3238 19.8996C31.9213 18.2386 31.8666 16.5228 32.8949 15.3181C33.8047 14.243 35.4102 13.7977 37.8056 14.0492C37.7342 13.8289 37.6962 13.6414 37.5762 13.357C37.0309 12.0382 36.3186 10.8006 35.4634 9.6771C33.4296 7.00037 30.1304 4.34552 25.0451 4.25645L24.8066 4.2627ZM11.3595 4.36896C11.1059 4.36896 10.8446 4.37677 10.5925 4.39396C8.54345 4.51741 6.61289 5.12526 5.22763 6.6316C3.84388 8.14576 2.93556 10.6115 3.13151 14.7055C3.17252 15.4868 3.49605 17.651 4.05653 20.2309C4.62006 22.8123 5.41749 25.8484 6.37594 28.533C7.33134 31.2097 8.48876 33.5458 9.59606 34.6521C10.149 35.1974 10.6305 35.4256 11.0664 35.4099C11.5023 35.3849 12.0324 35.124 12.681 34.3271C13.8597 32.8629 15.0794 31.4456 16.3447 30.0627C14.5235 28.4267 13.6303 25.9547 13.9873 23.4951C14.1923 21.9576 14.2242 20.5153 14.1923 19.3761C14.1696 18.2698 14.0966 17.5385 14.0966 17.0744C14.0966 17.0572 14.0966 17.0494 14.0966 17.0322V17.0244L14.089 17.0104C14.089 14.6087 14.5022 12.2335 15.292 9.97868C15.8616 8.42233 16.7016 6.85349 17.9654 5.57372C16.7244 5.15026 14.5159 4.51741 12.1281 4.39396C11.8745 4.37677 11.6117 4.36896 11.3595 4.36896ZM36.4674 15.3712C35.0928 15.3962 34.3242 15.7634 33.9141 16.2338C33.343 16.9104 33.2883 18.0979 33.6452 19.5637C33.9992 21.0278 34.7374 22.6638 35.4254 24.0249C35.7657 24.7077 36.0983 25.3187 36.3656 25.814C36.6436 26.3188 36.8411 26.6688 36.9595 26.9782C37.0704 27.2548 37.198 27.4985 37.3241 27.7267C37.8542 26.5703 37.9499 25.439 37.8937 24.2514C37.8223 22.7873 37.4912 21.2888 37.5458 19.7762C37.602 18.0011 37.9423 16.8447 37.9666 15.4775C37.4745 15.4134 36.9687 15.3712 36.4704 15.3712H36.4674ZM19.7926 15.6181C19.3734 15.6181 18.9542 15.6743 18.5425 15.7728C17.7269 15.9775 16.9446 16.2853 16.208 16.7088C15.9634 16.8463 15.7265 17.0026 15.5047 17.1823L15.4561 17.2213C15.4728 17.5323 15.5275 18.2636 15.5518 19.3543C15.5761 20.5418 15.5518 22.0544 15.3315 23.692C14.8409 27.2563 17.3563 30.2034 20.3075 30.2112C20.4822 29.4783 20.7647 28.7361 21.0503 27.9564C21.872 25.6765 23.4867 24.0171 22.1257 17.5229C21.9055 16.465 21.4619 16.0337 20.8513 15.79C20.5111 15.6665 20.1572 15.6103 19.7926 15.6197V15.6181ZM35.8279 16.04H35.9312C36.0573 16.0478 36.1849 16.0572 36.2943 16.0884C36.3975 16.1134 36.4932 16.1463 36.5722 16.2025C36.6512 16.2509 36.7059 16.3322 36.7226 16.4291V16.4463C36.7226 16.5447 36.6983 16.6416 36.6512 16.7322C36.5889 16.8447 36.5175 16.951 36.431 17.0401C36.2244 17.276 35.9464 17.4323 35.6472 17.4791C35.354 17.5213 35.0624 17.4401 34.8163 17.2682C34.7206 17.1932 34.6265 17.1119 34.5551 17.0229C34.4837 16.9494 34.4442 16.8525 34.4275 16.7541C34.4214 16.6588 34.4442 16.5603 34.5065 16.4869C34.5794 16.4119 34.6584 16.3478 34.7449 16.2994C34.9409 16.1853 35.2021 16.1041 35.5044 16.0619C35.6138 16.0478 35.7247 16.0384 35.8279 16.0306V16.04ZM19.9886 16.39C20.0919 16.39 20.2118 16.3978 20.3227 16.4135C20.6387 16.4635 20.9075 16.5447 21.1202 16.6744C21.2235 16.7244 21.3191 16.8057 21.389 16.8947C21.468 16.9932 21.506 17.1135 21.4999 17.2448C21.4756 17.3651 21.427 17.4807 21.348 17.5698C21.2614 17.676 21.1673 17.7651 21.0564 17.8385C20.7951 18.0339 20.4716 18.1151 20.1465 18.0745C19.82 18.0182 19.5207 17.8557 19.3005 17.6042C19.2048 17.4979 19.1258 17.3838 19.062 17.2619C18.9906 17.1479 18.9603 17.0182 18.9754 16.8869C19.0073 16.6682 19.1896 16.5447 19.3643 16.4806C19.5633 16.4135 19.7759 16.3916 19.9886 16.3994V16.39ZM38.3357 31.6894H38.3281C38.0365 31.8035 37.7919 31.8457 37.5853 31.9441C37.3727 32.0254 37.2041 32.1879 37.1038 32.3894C36.9687 32.627 36.8669 33.0504 36.8973 33.7723C36.9838 33.8395 37.0871 33.8864 37.1995 33.9208C37.5398 34.0271 38.1246 34.1005 38.7731 34.0911C40.0627 34.0739 41.653 33.7661 42.4991 33.3583C43.1871 33.0332 43.8357 32.5941 44.4053 32.0816C41.5816 32.6754 39.9928 32.5207 39.0101 32.1066C38.7731 32.0004 38.5423 31.8613 38.3357 31.6894ZM22.071 31.8847H22.03C21.9206 31.8925 21.7687 31.9347 21.4604 32.2769C20.7556 33.0895 20.5111 33.602 19.9339 34.0755C19.3491 34.5552 18.5972 34.8083 17.0859 35.1256C16.612 35.224 16.334 35.3365 16.1518 35.4256C16.2064 35.4756 16.2064 35.4928 16.293 35.5318C16.5163 35.6631 16.7988 35.7693 17.0297 35.8334C17.6783 35.9959 18.737 36.1912 19.8534 35.9959C20.9607 35.8006 22.1151 35.2537 23.1054 33.8317C23.2801 33.588 23.2938 33.2207 23.1525 32.8301C23.0112 32.4488 22.7014 32.1066 22.4887 32.0175C22.3535 31.9504 22.2108 31.9113 22.0695 31.8863L22.071 31.8847Z" fill="black" style="fill:black;fill-opacity:1;"/>
</svg>
