<svg width="50" height="52" viewBox="0 0 50 52" fill="none" xmlns="http://www.w3.org/2000/svg">
<g clip-path="url(#clip0_2103_17727)">
<path fill-rule="evenodd" clip-rule="evenodd" d="M31.86 47.145C30.655 47.145 29.68 46.1652 29.68 44.9539C29.68 43.7426 30.655 42.7651 31.86 42.7651C33.065 42.7651 34.04 43.7426 34.04 44.9539C34.04 46.1652 33.065 47.145 31.86 47.145ZM25.18 51C37.875 51 37.0825 45.4666 37.0825 45.4666L37.0675 39.7341H24.955V38.0129H41.8775C41.8775 38.0129 50 38.9403 50 26.0659C50 13.1915 42.9125 13.6453 42.9125 13.6453H38.68V19.6218C38.68 19.6218 38.9075 26.7458 31.705 26.7458H19.69C19.69 26.7458 12.94 26.6387 12.94 33.3059V44.3276C12.94 44.3276 11.915 51 25.18 51ZM18.1425 4.85498C19.3475 4.85498 20.32 5.83484 20.32 7.04614C20.32 8.25744 19.3475 9.23486 18.1425 9.23486C16.9375 9.23486 15.9625 8.25744 15.9625 7.04614C15.9625 5.83484 16.9375 4.85498 18.1425 4.85498ZM24.82 1C12.1275 1 12.92 6.53345 12.92 6.53345L12.935 12.2659H25.0475V13.9871H8.12248C8.12248 13.9871 0 13.0597 0 25.9341C0 38.8085 7.09 38.3547 7.09 38.3547H11.32V32.3782C11.32 32.3782 11.0925 25.2542 18.2975 25.2542H30.31C30.31 25.2542 37.06 25.3613 37.06 18.6941V7.67236C37.06 7.67236 38.085 1 24.82 1Z" fill="black" style="fill:black;fill-opacity:1;"/>
</g>
<defs>
<clipPath id="clip0_2103_17727">
<rect width="50" height="50" fill="white" style="fill:white;fill-opacity:1;" transform="translate(0 1)"/>
</clipPath>
</defs>
</svg>
