<svg width="50" height="52" viewBox="0 0 50 52" fill="none" xmlns="http://www.w3.org/2000/svg">
<path d="M22.1867 36.3531C23.1036 36.3948 24.0405 36.4248 24.9892 36.4248C25.9478 36.4248 26.8947 36.4048 27.8233 36.3531C26.8947 37.5535 25.9778 38.6155 25.0075 39.6275L25.0208 39.6141C24.0555 38.6138 23.1286 37.5502 22.255 36.4432L22.1867 36.3531ZM12.6871 35.0194C14.4927 35.4779 16.695 35.868 18.9423 36.1081L19.1607 36.1264C20.5362 38.0153 21.9266 39.6775 23.4187 41.2413L23.4004 41.2213C21.2147 43.6603 18.2655 45.3742 14.9295 45.9894L14.8378 46.0027C14.8311 46.0027 14.8244 46.0027 14.8178 46.0027C14.4043 46.0027 14.0142 45.901 13.6724 45.721L13.6858 45.7276C12.2987 44.9357 11.6968 41.9065 12.1653 38.0136C12.277 37.055 12.4604 36.0464 12.6855 35.0177L12.6871 35.0194ZM37.3329 34.9977C37.5296 35.788 37.7146 36.7949 37.8464 37.8186L37.8614 37.962C38.3398 41.8531 37.7497 44.879 36.3742 45.6876C36.0675 45.8577 35.7007 45.9577 35.3106 45.9577C35.2722 45.9577 35.2339 45.956 35.1956 45.9544H35.2006C31.7779 45.3292 28.8303 43.627 26.6497 41.2179L26.638 41.2046C28.1034 39.6658 29.4838 38.007 30.7492 36.2614L30.8459 36.1214C33.3067 35.8647 35.5123 35.4679 37.6613 34.926L37.3329 34.9961V34.9977ZM14.6361 28.7759C15.0528 29.5928 15.4896 30.4064 15.9698 31.2233C16.4488 32.0357 16.9384 32.8293 17.4386 33.604C15.9915 33.3923 14.5944 33.1255 13.259 32.8004C13.6341 31.4883 14.1042 30.1296 14.6344 28.7725L14.6361 28.7759ZM35.3556 28.7342C35.9074 30.1029 36.3759 31.4683 36.7644 32.7921C35.4306 33.1188 34.0219 33.3956 32.5648 33.604C33.0649 32.8221 33.5651 32.0168 34.0335 31.1916C34.502 30.3797 34.9405 29.5494 35.3589 28.7325L35.3556 28.7342ZM11.0266 19.8165C11.7535 22.2806 12.5338 24.3412 13.4424 26.3285L13.3173 26.025C12.5404 27.7005 11.7719 29.7495 11.1417 31.8585L11.055 32.2002C9.87796 31.8385 8.93101 31.4833 8.00907 31.0849L8.20079 31.1582C4.59304 29.6228 2.25901 27.6038 2.25901 26.0034C2.25901 24.4029 4.59304 22.3739 8.20079 20.8452C9.07605 20.47 10.0363 20.1316 11.0266 19.8165ZM38.9333 19.8082C39.942 20.1199 40.9006 20.4684 41.7975 20.8452C45.4053 22.3873 47.7393 24.4029 47.7393 26.0034C47.7293 27.6038 45.3953 29.6278 41.7875 31.1599C40.9123 31.535 39.9537 31.8718 38.965 32.1869C38.2315 29.7145 37.4512 27.6555 36.546 25.6649L36.6727 25.9784C37.4462 24.3045 38.2165 22.2556 38.845 20.1466L38.9333 19.8032V19.8082ZM32.5514 18.4028C34.0002 18.6178 35.3956 18.8812 36.731 19.2097C36.3559 20.5267 35.8874 21.8805 35.3556 23.2375C34.9388 22.4256 34.502 21.6071 34.0219 20.7918C33.5534 19.9749 33.0532 19.1797 32.5531 18.4044L32.5514 18.4028ZM17.4269 18.4028C16.9267 19.188 16.4266 19.9916 15.9598 20.8201C15.4913 21.6321 15.0528 22.449 14.6361 23.2659C14.0842 21.8988 13.6158 20.5367 13.2273 19.2097C14.561 18.8979 15.9665 18.6195 17.4252 18.4061L17.4269 18.4028ZM24.9992 17.8726C26.5413 17.8726 28.0768 17.9426 29.5872 18.066C30.433 19.2786 31.2544 20.5701 32.0513 21.9405C32.826 23.2742 33.5328 24.6257 34.1719 25.995C33.5301 27.3604 32.8265 28.7242 32.0613 30.0579C31.2694 31.4333 30.4508 32.7421 29.6022 33.9541C28.0851 34.0858 26.548 34.1575 24.9975 34.1575C23.4554 34.1575 21.9199 34.0841 20.4095 33.9641C19.5642 32.7521 18.739 31.455 17.9454 30.0896C17.1707 28.7559 16.4638 27.4043 15.8247 26.035C16.4566 24.6663 17.1701 23.2992 17.9354 21.9638C18.7273 20.5884 19.5459 19.2847 20.3945 18.0727C21.9116 17.9393 23.4487 17.8693 24.9992 17.8693V17.8726ZM24.9675 12.4026C25.9344 13.4029 26.8614 14.4649 27.7333 15.5719L27.8 15.6603C26.8831 15.6186 25.9461 15.5902 24.9975 15.5902C24.0389 15.5902 23.0919 15.6103 22.1633 15.6603C23.0903 14.4599 24.0072 13.3979 24.9792 12.386L24.9658 12.3993L24.9675 12.4026ZM14.7961 6.04738C18.2188 6.67424 21.1647 8.37642 23.347 10.7838L23.3587 10.7971C21.8932 12.3376 20.5128 13.9964 19.2474 15.7453L19.1507 15.8853C16.6917 16.1404 14.486 16.5339 12.3387 17.0757L12.6655 17.0057C12.4321 15.9854 12.2587 14.9967 12.137 14.0481C11.6585 10.1569 12.2487 7.13104 13.6241 6.3258C13.9675 6.16409 14.3693 6.06406 14.7928 6.05072H14.7978L14.7961 6.04738ZM35.1522 6.0057V6.01904C35.1739 6.01904 35.1989 6.01737 35.2256 6.01737C35.624 6.01737 35.9991 6.11574 36.3292 6.28912L36.3159 6.28245C37.703 7.07769 38.3048 10.1053 37.8364 13.9998C37.7247 14.9584 37.5413 15.9687 37.3162 16.999C35.5073 16.5355 33.305 16.1437 31.0577 15.9053L30.8443 15.887C29.4672 13.9964 28.0768 12.3343 26.5846 10.7688L26.6046 10.7888C28.7903 8.35474 31.7345 6.6409 35.0639 6.02238L35.1572 6.00737L35.1522 6.0057ZM35.1622 3.73502C31.091 4.35354 27.5666 6.3308 24.9925 9.18332L24.9792 9.19833C22.3867 6.34747 18.8623 4.38355 14.8911 3.78837L14.7978 3.7767C14.7761 3.7767 14.7494 3.7767 14.7227 3.7767C13.9042 3.7767 13.1356 3.99177 12.4704 4.36855L12.4937 4.35688C9.62955 6.00904 8.9877 11.1572 10.4665 17.6175C4.12457 19.5764 0 22.7074 0 26.0067C0 29.3194 4.14624 32.4586 10.5065 34.4026C9.03938 40.8878 9.69457 46.0444 12.5654 47.6949C13.1956 48.0566 13.9525 48.2684 14.7578 48.2684C14.7944 48.2684 14.8311 48.2684 14.8661 48.2667H14.8611C18.9323 47.6482 22.4567 45.6693 25.0308 42.8151L25.0442 42.8001C27.6366 45.6526 31.161 47.6165 35.1322 48.2117L35.2256 48.2234C35.2506 48.2234 35.2823 48.2234 35.3123 48.2234C36.1258 48.2234 36.8911 48.01 37.5529 47.6382L37.5296 47.6499C40.3921 45.9994 41.0356 40.8512 39.5569 34.3892C45.8754 32.447 50 29.3094 50 26.005C50 22.6924 45.8538 19.5531 39.4935 17.6042C40.9606 11.1256 40.3054 5.96403 37.4346 4.31186C36.7977 3.94675 36.0341 3.73169 35.2206 3.73169C35.1989 3.73169 35.1772 3.73169 35.1555 3.73169H35.1589L35.1622 3.73502ZM29.6456 26.0067C29.6456 28.5791 27.5599 30.6648 24.9875 30.6648C22.4151 30.6648 20.3294 28.5791 20.3294 26.0067C20.3294 23.4343 22.4151 21.3486 24.9875 21.3486C26.2745 21.3486 27.4382 21.8705 28.2818 22.7124C29.1254 23.556 29.6456 24.7196 29.6456 26.0067Z" fill="white" style="fill:white;fill-opacity:1;"/>
</svg>
