<svg width="80" height="52" viewBox="0 0 80 52" fill="none" xmlns="http://www.w3.org/2000/svg">
<path d="M69.6332 37.0266V40.9066H76.2399C78.3299 40.8366 79.9999 39.1266 79.9999 37.0266C79.9999 36.9833 79.9999 36.9433 79.9966 36.9V36.9066V35.4066C79.9999 35.36 79.9999 35.3066 79.9999 35.25C79.9999 33.1566 78.3265 31.4533 76.2432 31.4066H72.9465V29.6066H79.4732V25.7333H73.2099C71.0999 25.8266 69.4232 27.5633 69.4232 29.69V29.79V29.7866V31.1366C69.4232 31.17 69.4199 31.2133 69.4199 31.2533C69.4199 33.3633 71.0999 35.08 73.1965 35.1366H73.2032C77.7366 35.1566 72.1132 35.1366 76.3165 35.1366V37.0233L69.6299 37.0433L69.6332 37.0266ZM34.2232 36.0833C34.2232 36.0833 37.7599 35.76 37.7599 30.9166C37.7699 30.8066 37.7732 30.68 37.7732 30.5533C37.7732 28.0433 35.9165 25.97 33.5032 25.6266L33.4765 25.6233H25.7632V40.9066H29.6432V37.22L32.9965 40.9066H38.7365L34.2232 36.0833ZM32.7265 32.9533H29.6399V29.46H32.7532C33.2832 29.7633 33.6365 30.3233 33.6365 30.97C33.6365 31.05 33.6299 31.13 33.6199 31.2066V31.1966C33.6265 31.26 33.6332 31.3333 33.6332 31.41C33.6332 32.07 33.2732 32.6433 32.7399 32.95L32.7299 32.9533H32.7265ZM47.3399 25.73H43.4065C41.3132 25.82 39.6499 27.54 39.6499 29.65V29.7333V40.93H43.5899V38.2633H47.2899V40.93H51.1032V29.73C51.1065 29.6766 51.1065 29.6166 51.1065 29.5566C51.1065 27.4666 49.4299 25.7666 47.3465 25.7333H47.3432L47.3399 25.73ZM47.2899 33.8966H43.5565V30.1833C43.5565 30.1833 43.5565 29.35 44.7899 29.35H46.1432C47.2332 29.35 47.2565 30.1833 47.2565 30.1833V33.8933L47.2899 33.8966ZM52.8899 25.73H56.9899V40.9066H52.8899V25.73ZM62.7565 36.9833V25.73H58.6799V40.9066H68.2799V36.9833H62.7565Z" fill="black" style="fill:black;fill-opacity:1;"/>
<path d="M1.41309 40.9066H17.3798C17.3798 40.9066 14.3298 26.1399 24.4331 20.1566C26.6364 19.0199 33.6464 14.7766 45.1264 23.7766C45.4898 23.4533 45.8331 23.1966 45.8331 23.1966C45.8331 23.1966 35.3231 12.0732 23.6231 13.3166C17.7431 13.8732 10.5098 19.5532 6.26642 27.0566C3.89975 31.0433 2.19642 35.7099 1.44309 40.6899L1.41642 40.9033L1.41309 40.9066Z" fill="black" style="fill:black;fill-opacity:1;"/>
<path d="M1.41309 40.9033H17.3798C17.3798 40.9033 14.3298 26.1366 24.4331 20.1533C26.6364 19.0166 33.6464 14.7733 45.1264 23.7733C45.4898 23.4499 45.8331 23.1933 45.8331 23.1933C45.8331 23.1933 35.3231 12.0733 23.6231 13.3166C17.7231 13.8733 10.4898 19.5533 6.24309 27.0566C3.87642 31.0399 2.17975 35.7099 1.43975 40.6933L1.41309 40.9033ZM34.6831 14.5199L34.7631 13.0833C34.2031 12.7866 33.5531 12.5299 32.8698 12.3499L32.8031 12.3333L32.7231 13.7466C33.3898 13.9799 34.0364 14.2433 34.6831 14.5199Z" fill="black" style="fill:black;fill-opacity:1;"/>
<path d="M32.7534 19.0633L32.6734 20.4133C33.3967 20.44 34.0834 20.5366 34.7467 20.6933L34.6734 20.68L34.7534 19.3466C34.1767 19.2133 33.4934 19.1133 32.7934 19.0666L32.7534 19.0633ZM25.28 12.3766H25.4833L25.0667 11.0699C24.3833 11.0699 23.71 11.1166 23.05 11.2066L23.1267 11.1966L23.51 12.4599C24.0067 12.4066 24.5833 12.3733 25.17 12.3733H25.2867L25.28 12.3766ZM26.25 20.2633L26.7133 21.7433C27.2 21.48 27.7834 21.2266 28.3834 21.02L28.47 20.9933L28.0233 19.58C27.3167 19.8 26.7267 20.0333 26.16 20.3033L26.2467 20.2666L26.25 20.2633ZM17.0667 14.6266L16.1567 13.1466C15.6533 13.4133 15.1267 13.7266 14.58 14.07L15.51 15.57C16.0433 15.2266 16.55 14.9033 17.0667 14.6266ZM21.2067 24.2733L22.1767 25.8166C22.5533 25.2466 22.9467 24.75 23.3767 24.2866L23.37 24.2933L22.46 22.8333C22.01 23.27 21.6 23.74 21.23 24.24L21.2067 24.27V24.2733ZM18.2733 31.1733L19.91 32.5433C20.0033 31.5966 20.1533 30.7433 20.36 29.9133L20.3333 30.0366L18.8767 28.8166C18.6667 29.4366 18.4567 30.23 18.2933 31.0366L18.2733 31.1733ZM9.43667 20.9933L8.00001 19.6666C7.46667 20.2 6.97 20.7333 6.50334 21.2666L8.05667 22.68C8.52001 22.0466 8.97001 21.4966 9.44667 20.9666L9.43001 20.9866L9.43667 20.9933ZM3.33334 30.5733L1.01 29.6666C0.626667 30.59 0.21 31.66 0 32.24L2.32333 33.14C2.58667 32.4133 3.01 31.3633 3.33334 30.5733ZM17.9833 36.62C18.0133 37.6033 18.1 38.5366 18.2433 39.45L18.2267 39.32L20.65 40.2433C20.47 39.41 20.2867 38.4633 20.1633 37.4566L17.9833 36.6233V36.62Z" fill="black" style="fill:black;fill-opacity:1;"/>
</svg>
