<svg width="50" height="52" viewBox="0 0 50 52" fill="none" xmlns="http://www.w3.org/2000/svg">
<path d="M23.5785 7.71176C21.2229 7.58744 18.5745 7.94846 15.9838 8.84788C11.8669 10.2763 7.41426 12.5229 4.21246 15.4497C0.408973 18.9332 -0.20113 21.9649 0.0488803 23.2332C0.938917 27.7318 7.28298 30.6664 9.82142 32.8365C9.69642 32.9048 9.57985 32.9636 9.46984 33.0253C8.19646 33.6437 3.47256 36.0729 2.26251 38.6864C0.895791 41.6498 2.48864 43.7709 3.53535 44.0609C6.80049 44.9476 10.0316 43.398 11.8267 40.7795C13.6235 38.1594 13.4071 34.74 12.5787 33.1816C12.5704 33.1582 12.5545 33.1431 12.5461 33.1197C12.8745 32.928 13.2089 32.7352 13.5455 32.5435C14.1939 32.1685 14.8265 31.8262 15.3815 31.5279C15.0682 32.3529 14.8423 33.3481 14.724 34.7832C14.584 36.4633 15.2932 38.637 16.2149 39.4937C16.6216 39.8687 17.1128 39.8778 17.4161 39.8778C18.4945 39.8778 18.9791 39.007 19.5158 37.9669C20.1792 36.6985 20.7659 35.2259 20.7659 35.2259C20.7659 35.2259 20.0336 39.2105 22.042 39.2105C22.7753 39.2105 23.5106 38.2873 23.8389 37.8139V37.8204C23.8389 37.8204 23.851 37.791 23.891 37.7293C23.9694 37.6143 24.0082 37.547 24.0082 37.547V37.5242C24.3049 37.0275 24.9554 35.8901 25.9321 34.0117C27.1972 31.5832 28.4062 28.5492 28.4062 28.5492C28.5229 29.2159 28.6845 29.8737 28.8912 30.5187C29.1096 31.2437 29.5728 32.0388 29.9394 32.8105C29.6428 33.2071 29.4609 33.4355 29.4609 33.4355C29.4609 33.4422 29.4657 33.4484 29.4707 33.4518C29.2357 33.7568 28.9692 34.0839 28.6959 34.4056C27.6959 35.5673 26.5071 36.8984 26.3521 37.28C26.1637 37.7301 26.2118 38.065 26.5702 38.325C26.8352 38.5234 27.3074 38.5537 27.7974 38.5171C28.6958 38.4554 29.3284 38.2403 29.6334 38.1036C30.1951 37.907 30.7257 37.6363 31.209 37.2963C32.1857 36.593 32.781 35.5842 32.726 34.2558C32.6944 33.5225 32.4498 32.7875 32.1531 32.1008C32.2397 31.9791 32.335 31.8499 32.42 31.7199C33.9667 29.5132 35.161 27.0908 35.161 27.0908C35.2777 27.7575 35.4394 28.4153 35.6461 29.0603C35.8344 29.6787 36.2013 30.3582 36.538 31.0233C35.0863 32.1767 34.1852 33.5142 33.8719 34.3926C33.2935 36.0193 33.7494 36.7504 34.6011 36.9187C34.9844 36.9954 35.5291 36.8217 35.9358 36.655C36.5391 36.4583 37.107 36.1721 37.6221 35.8054C38.5988 35.102 39.5442 34.1179 39.4809 32.7812C39.4575 32.1778 39.2876 31.574 39.0609 30.994C40.2876 30.4906 41.8796 30.2155 43.9114 30.4438C48.2616 30.9405 49.114 33.5984 48.9507 34.7051C48.7873 35.8134 47.8721 36.4326 47.5671 36.616C47.2621 36.7993 47.1694 36.8683 47.1928 37.0066C47.2311 37.2049 47.3706 37.1965 47.629 37.1498C47.989 37.0882 49.9089 36.2491 49.9956 34.194C50.1206 31.5985 47.5696 28.7436 43.0487 28.7641H43.0422C41.4727 28.765 39.9254 29.1169 38.5173 29.796C38.0556 28.8876 37.5783 28.0928 37.5016 27.4977C37.4083 26.8027 37.3086 26.3907 37.417 25.5673C37.527 24.7423 38.0178 23.5722 38.0094 23.4872C38.0011 23.4038 37.8996 22.9844 36.8929 22.9761C35.8862 22.9677 35.0169 23.167 34.9169 23.4253C34.7385 23.9003 34.6001 24.387 34.5034 24.8837C34.3234 25.7771 32.4883 28.9708 31.4499 30.6359C31.1066 29.9859 30.8182 29.4145 30.7565 28.9561C30.6632 28.2611 30.5603 27.8491 30.6686 27.0257C30.7786 26.2007 31.2727 25.0306 31.2644 24.9455C31.256 24.8622 31.1545 24.4428 30.1478 24.4345C29.1411 24.4261 28.2702 24.6254 28.1685 24.8837C28.0669 25.1437 27.9568 25.7537 27.7551 26.3421C27.5518 26.9304 25.1072 32.2491 24.4672 33.6308C24.1389 34.3342 23.8567 34.8996 23.6534 35.2813C23.6217 35.3429 23.6 35.3815 23.585 35.4115C23.6083 35.3731 23.6241 35.3346 23.6241 35.3496C23.4524 35.678 23.3506 35.8607 23.3506 35.8607V35.8672C23.2173 36.1122 23.0691 36.336 22.9991 36.336C22.9524 36.336 22.8502 35.6941 23.0218 34.8158C23.3885 32.9673 24.2574 30.0946 24.2491 29.9946C24.2408 29.9413 24.4095 29.4442 23.6762 29.1775C22.9645 28.9258 22.7108 29.3468 22.6475 29.3468C22.5841 29.3468 22.5368 29.4998 22.5368 29.4998C22.5368 29.4998 23.3232 26.2607 21.0198 26.2607C19.5814 26.2607 17.5808 27.8036 16.599 29.2003C15.9824 29.5286 14.6463 30.2405 13.2395 30.9972C12.7012 31.2872 12.1482 31.5847 11.6249 31.8664C11.5865 31.8281 11.5542 31.7908 11.5142 31.7525C8.71742 28.834 3.55465 26.7709 3.77299 22.8524C3.85133 21.424 4.3614 17.6757 13.7018 13.1221C21.3588 9.39532 27.4798 10.4173 28.5331 12.6924C30.0482 15.9392 25.259 21.9823 17.3087 22.8524C14.2786 23.1807 12.8826 21.9004 12.4843 21.4721C12.0709 21.0221 12.0062 20.9981 11.8495 21.0815C11.5912 21.2181 11.7562 21.6163 11.8495 21.853C12.0845 22.4563 13.1289 23.4014 14.7923 23.9364C16.2541 24.4031 19.6104 24.7949 23.9073 23.1681C28.7342 21.3497 32.4214 16.4101 31.3197 12.1716C30.6186 9.47876 27.5045 7.91896 23.5785 7.71176ZM21.0165 28.1716C21.1387 28.1806 21.2294 28.2257 21.2802 28.3116C21.5536 28.7633 20.3305 32.0881 20.0172 32.8365C19.5171 34.0366 18.4615 37.0934 17.8198 36.9317C17.2731 36.7951 16.9358 34.4642 17.7091 32.1724C18.0991 31.019 18.9281 29.6442 19.4214 29.1091C20.0127 28.4616 20.65 28.1446 21.0165 28.1716ZM37.2509 31.9413C37.3426 32.208 37.3908 32.4881 37.3974 32.7681C37.3891 34.4882 36.1326 35.1285 35.3759 35.3952C35.2192 35.2885 35.2399 34.9282 35.7633 33.8131C35.9666 33.3781 36.4376 32.6446 37.2509 31.9413ZM11.0096 33.8359C11.658 36.1577 11.0337 38.2058 9.51867 39.8192C8.08195 41.3543 6.06554 41.9352 5.19883 41.4469C4.2688 40.9185 4.63641 38.6564 6.40982 37.0196C7.4882 36.0262 8.88018 35.1106 9.80189 34.5456C10.0136 34.4239 10.3156 34.2399 10.6906 34.0182C10.7539 33.9799 10.785 33.9661 10.785 33.9661C10.855 33.9211 10.9313 33.8826 11.0096 33.8359ZM30.6393 34.1028C30.6393 34.1412 30.6491 34.1815 30.6491 34.2265C30.6391 35.5933 29.2929 36.5162 28.6829 36.8829H28.6894V36.8861C28.4777 36.9928 28.2814 37.0599 28.1881 37.0066C28.1181 36.9683 28.276 36.8243 28.276 36.8243C28.276 36.8243 29.3613 35.6841 29.7897 35.1641C30.0397 34.8591 30.3277 34.4995 30.6393 34.1028Z" fill="black" style="fill:black;fill-opacity:1;"/>
</svg>
