<svg width="50" height="52" viewBox="0 0 50 52" fill="none" xmlns="http://www.w3.org/2000/svg">
<g clip-path="url(#clip0_2103_17741)">
<path d="M22.0322 50.9681C17.3519 50.6307 12.7261 49.4527 9.88908 47.8755C8.27314 46.9772 7.04202 45.8733 6.55892 44.8893L6.27148 44.3039V25.941V7.57805L6.49893 7.11623C7.51533 5.05266 10.7592 3.19234 15.2873 2.07612C16.8244 1.6972 19.0435 1.31984 20.8538 1.12956C22.7023 0.9352 27.6021 0.96477 29.4461 1.1817C34.3469 1.75748 38.5173 3.04653 41.0873 4.78003C42.0784 5.44853 43.0954 6.51819 43.4399 7.25448L43.7353 7.88576L43.7101 26.1931L43.6848 44.5006L43.4477 44.9823C43.3172 45.2472 42.9233 45.7685 42.5723 46.1406C40.4353 48.4059 35.8514 50.0817 29.8389 50.7957C28.6134 50.9413 23.2895 51.0587 22.0322 50.9681ZM30.6572 35.2335C30.6392 35.1866 29.9395 34.5633 29.1024 33.8484C28.2652 33.1334 27.5442 32.5149 27.5002 32.4738C27.4561 32.4327 27.6108 32.2874 27.8439 32.1507C28.077 32.0141 28.5236 31.6339 28.8364 31.3059C29.751 30.3469 30.1825 29.1621 30.1825 27.6103C30.1825 26.0826 29.7171 24.85 28.7849 23.9091C27.8454 22.9606 26.7666 22.5531 25.1957 22.5531C22.7742 22.5531 20.9145 23.9661 20.3209 26.2568C20.1168 27.0447 20.1179 28.6368 20.3231 29.3355C20.8584 31.1579 22.3163 32.4814 24.1307 32.7922C24.7447 32.8974 24.8278 32.9427 25.2464 33.4004C25.4952 33.6724 26.0057 34.2153 26.3809 34.6069L27.0631 35.3188H28.8765C29.8739 35.3188 30.6752 35.2804 30.6572 35.2335ZM24.4382 30.156C24.0016 29.9284 23.8366 29.7518 23.5876 29.2457C23.3954 28.8548 23.3625 28.6324 23.3603 27.7085C23.3582 26.7698 23.3881 26.5669 23.5888 26.1592C23.9173 25.4922 24.3699 25.1764 25.0701 25.1257C26.0448 25.055 26.6074 25.5334 26.9023 26.683C27.2638 28.0924 26.8662 29.5909 25.9989 30.0882C25.5438 30.3491 24.865 30.3786 24.4382 30.156ZM16.4003 32.7722C18.3015 32.4117 19.3808 31.306 19.3808 29.7187C19.3808 28.3106 18.684 27.4901 16.7582 26.6304C15.6558 26.1383 15.2565 25.8293 15.2565 25.4684C15.2565 25.1693 15.6355 24.8415 16.0766 24.7591C16.5073 24.6787 17.6497 24.8771 18.3244 25.1496L18.8898 25.378V24.1263V22.8746L18.2761 22.7384C17.8968 22.6543 17.0997 22.6038 16.1894 22.6063C14.8999 22.6063 14.6474 22.6378 14.1622 22.8305C12.7447 23.3932 12.0721 24.3518 12.0828 25.7937C12.0929 27.1435 12.805 27.9856 14.5773 28.743C15.623 29.19 16.0421 29.5303 16.0421 29.9325C16.0421 30.7871 14.6181 30.8923 13.1104 30.149C12.6975 29.9455 12.3266 29.7623 12.2861 29.7421C12.2456 29.7218 12.2124 30.3065 12.2124 31.0414C12.2124 32.3717 12.2138 32.3782 12.4547 32.4698C13.3617 32.8147 15.3663 32.9683 16.4003 32.7722ZM38.1365 31.5382V30.4089H36.4181H34.6996V26.5301V22.6513H33.1776H31.6555V27.6594V32.6675H34.896H38.1365V31.5382ZM27.5312 11.7489C30.5558 11.5391 32.8231 11.143 34.8182 10.476C36.8058 9.81139 37.9799 9.00725 38.2426 8.13068C38.3438 7.7929 38.3365 7.66477 38.1951 7.29441C37.561 5.63406 34.0187 4.35839 28.6059 3.84117C26.2905 3.61989 22.0796 3.69162 19.8719 3.98984C16.5033 4.44498 13.7696 5.29039 12.554 6.25289C10.0951 8.20003 12.6954 10.3416 18.7426 11.3496C21.3646 11.7867 24.7616 11.941 27.5312 11.7489Z" fill="black" style="fill:black;fill-opacity:1;"/>
</g>
<defs>
<clipPath id="clip0_2103_17741">
<rect width="50" height="50" fill="white" style="fill:white;fill-opacity:1;" transform="translate(0 1)"/>
</clipPath>
</defs>
</svg>
