<svg width="50" height="52" viewBox="0 0 50 52" fill="none" xmlns="http://www.w3.org/2000/svg">
<path d="M42.9714 28.9667V28.9952H50V37.8048H39.7048C38.8952 37.8048 37.6619 37.4667 36.9714 37.0548L34.5 35.6024C33.8095 35.1905 32.6619 35.1905 31.9714 35.6024L28.7643 37.481C28.0738 37.8762 28.0738 38.5524 28.7643 38.9619L35.5 42.9119C36.1905 43.3238 37.4286 43.6595 38.2357 43.6595H50V49.531C50 50.3405 49.3381 51 48.5286 51H1.47143C0.660251 50.9987 0.00261988 50.3421 0 49.531V43.6595H11.7667C12.7226 43.62 13.6571 43.3644 14.5 42.9119L36.9714 29.7143C37.6619 29.3048 38.8976 28.9667 39.7048 28.9667H42.9714ZM42.9714 14.5595H50V23.4524H38.2333C37.2768 23.4933 36.342 23.7514 35.5 24.2071L13.0286 37.5333C12.1865 37.9891 11.2518 38.2472 10.2952 38.2881H0V29.3952H11.7667C12.7232 29.3543 13.658 29.0962 14.5 28.6405L36.9714 15.3143C37.8135 14.8586 38.7482 14.6005 39.7048 14.5595H42.9714ZM48.5286 1C49.3381 1 50 1.6619 50 2.44048V8.32143H38.2333C37.2775 8.36099 36.3429 8.61659 35.5 9.06905L13.0286 22.2857C12.3381 22.6976 11.1024 23.0357 10.2952 23.0357H0V14.2143H10.2952C11.1048 14.2143 12.3381 14.5524 13.0286 14.9643L15.5 16.419C16.1905 16.831 17.3381 16.831 18.0286 16.419L21.2357 14.5381C21.9262 14.1405 21.9262 13.4667 21.2357 13.0524L14.5 9.1C13.6564 8.64676 12.7211 8.39035 11.7643 8.35H0V2.46905C0.00391827 1.65842 0.660791 1.00261 1.47143 1L48.5286 1Z" fill="white" style="fill:white;fill-opacity:1;"/>
</svg>
